<svg xmlns="http://www.w3.org/2000/svg" width="1024" height="1024" viewBox="0 0 1024 1024"><defs><clipPath id="aurora-tile"><rect x="0" y="0" width="1024" height="1024" rx="229.07"/></clipPath><clipPath id="aurora-lens"><circle cx="462.85" cy="440.32" r="209.94"/></clipPath><linearGradient id="aurora-bg" gradientUnits="userSpaceOnUse" x1="61.44" y1="0" x2="962.56" y2="1024"><stop offset="0.0%" stop-color="#1A1840"/><stop offset="52.0%" stop-color="#562CB0"/><stop offset="100.0%" stop-color="#0E6E82"/></linearGradient><radialGradient id="aurora-b0" gradientUnits="userSpaceOnUse" cx="184.32" cy="860.16" r="634.88"><stop offset="0%" stop-color="#00D8FF" stop-opacity="0.42"/><stop offset="100%" stop-color="#00D8FF" stop-opacity="0"/></radialGradient><radialGradient id="aurora-b1" gradientUnits="userSpaceOnUse" cx="880.64" cy="143.36" r="532.48"><stop offset="0%" stop-color="#FF3CA8" stop-opacity="0.30"/><stop offset="100%" stop-color="#FF3CA8" stop-opacity="0"/></radialGradient><radialGradient id="aurora-sheen" gradientUnits="userSpaceOnUse" cx="512.00" cy="-122.88" r="1003.52"><stop offset="0%" stop-color="#FFFFFF" stop-opacity="0.16"/><stop offset="100%" stop-color="#FFFFFF" stop-opacity="0"/></radialGradient><linearGradient id="aurora-amb" gradientUnits="userSpaceOnUse" x1="0" y1="0" x2="0" y2="460.80"><stop offset="0%" stop-color="#FFFFFF" stop-opacity="0.09"/><stop offset="100%" stop-color="#FFFFFF" stop-opacity="0"/></linearGradient><linearGradient id="aurora-edge" gradientUnits="userSpaceOnUse" x1="0" y1="0" x2="0" y2="614.40"><stop offset="0%" stop-color="#FFFFFF" stop-opacity="0.45"/><stop offset="100%" stop-color="#FFFFFF" stop-opacity="0.06"/></linearGradient><linearGradient id="aurora-metal" gradientUnits="userSpaceOnUse" x1="122.88" y1="0" x2="921.60" y2="1024"><stop offset="0.0%" stop-color="#FFFFFF"/><stop offset="38.0%" stop-color="#CFE6FF"/><stop offset="72.0%" stop-color="#8FB4E8"/><stop offset="100.0%" stop-color="#5E7FC4"/></linearGradient><radialGradient id="aurora-halo" gradientUnits="userSpaceOnUse" cx="462.85" cy="440.32" r="522.65"><stop offset="0%" stop-color="#7FE6FF" stop-opacity="0.18"/><stop offset="100%" stop-color="#7FE6FF" stop-opacity="0"/></radialGradient><radialGradient id="aurora-glass" gradientUnits="userSpaceOnUse" cx="379.70" cy="333.41" r="403.87"><stop offset="0%" stop-color="#FFFFFF" stop-opacity="0.45"/><stop offset="45%" stop-color="#FFFFFF" stop-opacity="0.14"/><stop offset="100%" stop-color="#FFFFFF" stop-opacity="0.06"/></radialGradient><radialGradient id="aurora-rim" gradientUnits="userSpaceOnUse" cx="605.39" cy="606.62" r="308.84"><stop offset="0%" stop-color="#101528" stop-opacity="0"/><stop offset="55%" stop-color="#101528" stop-opacity="0.08"/><stop offset="100%" stop-color="#101528" stop-opacity="0.30"/></radialGradient><radialGradient id="aurora-dg0" cx="0.5" cy="0.5" r="0.5"><stop offset="0%" stop-color="#FF5D73" stop-opacity="0.45"/><stop offset="100%" stop-color="#FF5D73" stop-opacity="0"/></radialGradient><radialGradient id="aurora-dg1" cx="0.5" cy="0.5" r="0.5"><stop offset="0%" stop-color="#4CC9F0" stop-opacity="0.45"/><stop offset="100%" stop-color="#4CC9F0" stop-opacity="0"/></radialGradient><radialGradient id="aurora-dg2" cx="0.5" cy="0.5" r="0.5"><stop offset="0%" stop-color="#FFC857" stop-opacity="0.45"/><stop offset="100%" stop-color="#FFC857" stop-opacity="0"/></radialGradient><radialGradient id="aurora-dg3" cx="0.5" cy="0.5" r="0.5"><stop offset="0%" stop-color="#A78BFA" stop-opacity="0.45"/><stop offset="100%" stop-color="#A78BFA" stop-opacity="0"/></radialGradient><radialGradient id="aurora-dg4" cx="0.5" cy="0.5" r="0.5"><stop offset="0%" stop-color="#34D399" stop-opacity="0.45"/><stop offset="100%" stop-color="#34D399" stop-opacity="0"/></radialGradient><radialGradient id="aurora-dg5" cx="0.5" cy="0.5" r="0.5"><stop offset="0%" stop-color="#FF9A76" stop-opacity="0.45"/><stop offset="100%" stop-color="#FF9A76" stop-opacity="0"/></radialGradient><filter id="aurora-soft" x="-30%" y="-30%" width="160%" height="160%"><feGaussianBlur stdDeviation="10.24"/></filter><filter id="aurora-soft2" x="-30%" y="-30%" width="160%" height="160%"><feGaussianBlur stdDeviation="4.10"/></filter><filter id="aurora-shadow" x="-45%" y="-45%" width="190%" height="190%"><feGaussianBlur in="SourceAlpha" stdDeviation="20.48" result="b"/><feOffset in="b" dx="16.38" dy="24.58" result="o"/><feFlood flood-color="#07070F" flood-opacity="0.42" result="c"/><feComposite in="c" in2="o" operator="in" result="sh"/><feMerge><feMergeNode in="sh"/><feMergeNode in="SourceGraphic"/></feMerge></filter></defs><rect x="0" y="0" width="1024" height="1024" rx="229.07" fill="url(#aurora-bg)"/><rect x="0" y="0" width="1024" height="1024" fill="url(#aurora-b0)"/><rect x="0" y="0" width="1024" height="1024" fill="url(#aurora-b1)"/><rect x="0" y="0" width="1024" height="1024" fill="url(#aurora-sheen)"/><rect x="0" y="0" width="1024" height="460.80" fill="url(#aurora-amb)"/><rect x="14.34" y="14.34" width="995.33" height="995.33" rx="214.73" fill="none" stroke="url(#aurora-edge)" stroke-width="6.14"/><g clip-path="url(#aurora-tile)"><circle cx="462.85" cy="440.32" r="522.65" fill="none" stroke="url(#aurora-halo)" stroke-width="522.65"/><g filter="url(#aurora-shadow)"><line x1="601.98" y1="584.40" x2="759.90" y2="747.93" stroke="url(#aurora-metal)" stroke-width="88.06" stroke-linecap="round"/><circle cx="462.85" cy="440.32" r="237.57" fill="none" stroke="url(#aurora-metal)" stroke-width="53.25"/><path d="M 227.59 407.26 A 237.57 237.57 0 0 1 520.32 209.81" fill="none" stroke="#FFFFFF" stroke-opacity="0.72" stroke-width="54.31" stroke-linecap="round" filter="url(#aurora-soft2)"/><path d="M 236.91 366.91 A 237.57 237.57 0 0 1 471.14 202.90" fill="none" stroke="#FFFFFF" stroke-opacity="0.85" stroke-width="24.49" stroke-linecap="round"/><path d="M 693.36 497.79 A 237.57 237.57 0 0 1 373.85 660.59" fill="none" stroke="#0A0E1E" stroke-opacity="0.30" stroke-width="53.25" stroke-linecap="round" filter="url(#aurora-soft)"/><g clip-path="url(#aurora-lens)"><circle cx="462.85" cy="440.32" r="209.94" fill="url(#aurora-glass)"/><circle cx="462.85" cy="440.32" r="209.94" fill="url(#aurora-rim)"/><line x1="353.57" y1="369.05" x2="405.83" y2="331.04" stroke="#FFFFFF" stroke-opacity="0.26" stroke-width="7.17" stroke-linecap="round"/><line x1="405.83" y1="331.04" x2="439.09" y2="402.31" stroke="#FFFFFF" stroke-opacity="0.26" stroke-width="7.17" stroke-linecap="round"/><line x1="353.57" y1="369.05" x2="439.09" y2="402.31" stroke="#FFFFFF" stroke-opacity="0.26" stroke-width="7.17" stroke-linecap="round"/><line x1="524.62" y1="426.07" x2="572.13" y2="464.08" stroke="#FFFFFF" stroke-opacity="0.26" stroke-width="7.17" stroke-linecap="round"/><line x1="524.62" y1="426.07" x2="500.86" y2="492.58" stroke="#FFFFFF" stroke-opacity="0.26" stroke-width="7.17" stroke-linecap="round"/><line x1="572.13" y1="464.08" x2="500.86" y2="492.58" stroke="#FFFFFF" stroke-opacity="0.26" stroke-width="7.17" stroke-linecap="round"/><line x1="386.83" y1="511.59" x2="448.59" y2="544.85" stroke="#FFFFFF" stroke-opacity="0.26" stroke-width="7.17" stroke-linecap="round"/><line x1="386.83" y1="511.59" x2="481.85" y2="445.07" stroke="#FFFFFF" stroke-opacity="0.26" stroke-width="7.17" stroke-linecap="round"/><line x1="448.59" y1="544.85" x2="481.85" y2="445.07" stroke="#FFFFFF" stroke-opacity="0.26" stroke-width="7.17" stroke-linecap="round"/><line x1="439.09" y1="402.31" x2="481.85" y2="445.07" stroke="#FFFFFF" stroke-opacity="0.26" stroke-width="7.17" stroke-linecap="round"/><line x1="500.86" y1="492.58" x2="481.85" y2="445.07" stroke="#FFFFFF" stroke-opacity="0.26" stroke-width="7.17" stroke-linecap="round"/><line x1="439.09" y1="402.31" x2="500.86" y2="492.58" stroke="#FFFFFF" stroke-opacity="0.26" stroke-width="7.17" stroke-linecap="round"/><line x1="405.83" y1="331.04" x2="386.83" y2="511.59" stroke="#FFFFFF" stroke-opacity="0.26" stroke-width="7.17" stroke-linecap="round"/><circle cx="353.57" cy="369.05" r="60.10" fill="url(#aurora-dg1)"/><circle cx="353.57" cy="369.05" r="27.32" fill="#4CC9F0"/><circle cx="344.28" cy="359.21" r="9.29" fill="#FFFFFF" fill-opacity="0.55"/><circle cx="405.83" cy="331.04" r="70.56" fill="url(#aurora-dg4)"/><circle cx="405.83" cy="331.04" r="32.07" fill="#34D399"/><circle cx="394.93" cy="319.49" r="10.90" fill="#FFFFFF" fill-opacity="0.55"/><circle cx="439.09" cy="402.31" r="54.88" fill="url(#aurora-dg0)"/><circle cx="439.09" cy="402.31" r="24.94" fill="#FF5D73"/><circle cx="430.61" cy="393.33" r="8.48" fill="#FFFFFF" fill-opacity="0.55"/><circle cx="524.62" cy="426.07" r="67.94" fill="url(#aurora-dg2)"/><circle cx="524.62" cy="426.07" r="30.88" fill="#FFC857"/><circle cx="514.12" cy="414.95" r="10.50" fill="#FFFFFF" fill-opacity="0.55"/><circle cx="572.13" cy="464.08" r="57.49" fill="url(#aurora-dg3)"/><circle cx="572.13" cy="464.08" r="26.13" fill="#A78BFA"/><circle cx="563.24" cy="454.67" r="8.89" fill="#FFFFFF" fill-opacity="0.55"/><circle cx="500.86" cy="492.58" r="52.26" fill="url(#aurora-dg5)"/><circle cx="500.86" cy="492.58" r="23.76" fill="#FF9A76"/><circle cx="492.78" cy="484.03" r="8.08" fill="#FFFFFF" fill-opacity="0.55"/><circle cx="386.83" cy="511.59" r="65.33" fill="url(#aurora-dg3)"/><circle cx="386.83" cy="511.59" r="29.70" fill="#A78BFA"/><circle cx="376.73" cy="500.90" r="10.10" fill="#FFFFFF" fill-opacity="0.55"/><circle cx="448.59" cy="544.85" r="54.88" fill="url(#aurora-dg1)"/><circle cx="448.59" cy="544.85" r="24.94" fill="#4CC9F0"/><circle cx="440.11" cy="535.87" r="8.48" fill="#FFFFFF" fill-opacity="0.55"/><circle cx="481.85" cy="445.07" r="78.40" fill="url(#aurora-dg0)"/><circle cx="481.85" cy="445.07" r="35.64" fill="#FF5D73"/><circle cx="469.74" cy="432.24" r="12.12" fill="#FFFFFF" fill-opacity="0.55"/><ellipse cx="386.83" cy="326.29" rx="66.52" ry="42.76" fill="#FFFFFF" fill-opacity="0.55" transform="rotate(-34 386.83 326.29)" filter="url(#aurora-soft)"/><circle cx="424.84" cy="297.78" r="13.07" fill="#FFFFFF" fill-opacity="0.70"/></g></g></g></svg>